<svg xmlns="http://www.w3.org/2000/svg" width="237" height="100" viewBox="0 0 237 100">
  <g transform="matrix(1 0 0 -1 0 99.8)">
    <polygon points="121.933 31.286 142.942 31.286 142.942 30.398 121.038 30.398 121.038 69.453 121.933 69.453"/>
    <path d="M147.581234,50.3960067 L167.026742,69.4530921 L168.143309,69.4530921 L148.351693,50.00439 L170.546503,30.3984024 L169.261473,30.3984024 L147.581234,49.5085816 L147.581234,50.4035916 L147.581234,50.3960067 Z M146.295006,30.3984024 L145.457481,30.3984024 L145.457481,69.4530921 L146.295006,69.4530921 L146.295006,30.3984024 Z"/>
    <polygon points="171.944 30.398 171.106 30.398 171.106 69.52 172 69.52 188.208 45.549 204.467 69.52 205.361 69.52 205.361 30.398 204.524 30.398 204.524 68.223 188.595 44.531 187.873 44.531 171.944 68.223"/>
    <polygon points="207.546 69.461 221.685 49.9 207.546 30.398 208.606 30.398 222.18 49.161 235.816 30.398 236.823 30.398 222.679 49.892 236.818 69.453 235.813 69.453 222.176 50.691 208.603 69.453 208.606 69.461"/>
    <path d="M64.2355273,86.3317344 L22.104231,86.3317344 L1.04634329,49.8439109 L22.1073448,13.3604787 L64.2323337,13.3604787 L85.2778422,49.8439109 L64.2151681,86.3273432 L64.2355273,86.3317344 Z M63.7209565,85.4415148 L84.2722534,49.8487013 L63.7209565,14.2510176 L22.603233,14.2510176 L2.06789616,49.8439109 L22.603233,85.4415148 L63.7209565,85.4415148 Z"/>
    <path d="M43.1652684,85.3165647 L12.4267063,67.5804374 L12.4267063,32.1073445 L43.1652684,14.3712571 L73.9037906,32.1073445 L73.9037906,67.5804374 L43.1652684,85.3165647 Z M43.1652684,84.2906167 L72.997603,67.0702578 L72.997603,32.6219553 L43.1652684,15.4019956 L13.3374049,32.6219553 L13.3374049,67.0702578 L43.1652684,84.2906167 Z"/>
    <path d="M58.0526932,75.6283414 L28.2842308,75.6283414 L13.3968061,49.8439109 L28.2842308,24.0642309 L58.0526932,24.0642309 L72.9385211,49.8439109 L58.0526932,75.6283414 Z M57.5413159,74.7425131 L71.9125731,49.8487013 L57.5413159,24.9544505 L28.7988017,24.9544505 L14.4275445,49.8487013 L28.7988017,74.7425131 L57.5413159,74.7425131 Z"/>
    <path d="M43.1700588,74.7473035 L21.6131731,62.2986012 L21.6131731,37.4047096 L43.1700588,24.9577239 L64.7269445,37.4047096 L64.7269445,62.2954076 L43.1700588,74.7425131 L43.1700588,74.7473035 Z M43.1652684,73.7524932 L63.8690603,61.8027929 L63.8690603,37.8973244 L43.1652684,25.9481031 L22.4674246,37.8973244 L22.4674246,61.8027929 L43.1700588,73.7524932 L43.1652684,73.7524932 Z"/>
    <path d="M43.1652684,99.6926123 L43.1652684,99.680237 L0,74.7704572 L0,24.9217159 L43.1700588,0 L86.3397184,24.9217159 L86.3397184,74.7704572 L43.1652684,99.6926123 Z M0.877776425,25.428662 L0.877776425,74.25908 L43.1652684,98.6634706 L85.4526925,74.2483015 L85.4526925,25.428662 L43.1652684,1.01359678 L0.877776425,25.428662 Z"/>
    <polygon points="64.115 62.259 63.501 61.899 43.17 50.071 22.839 61.904 22.224 62.259 21.841 62.04 21.841 61.464 22.46 61.106 42.666 49.345 42.666 25.39 43.17 25.101 43.546 25.318 43.546 49.27 63.88 61.101 64.495 61.461 64.495 62.04"/>
  </g>
</svg>
